<svg width="189" height="81" viewBox="0 0 189 81" fill="none" xmlns="http://www.w3.org/2000/svg">
<path d="M13.4277 59.0254C12.321 59.0254 11.2142 58.8301 10.1074 58.4395C9.0332 58.0488 7.99154 57.4792 6.98242 56.7305C5.97331 55.9492 5.0944 54.9238 4.3457 53.6543C3.59701 52.3848 3.1901 50.8711 3.125 49.1133V31.4863C3.125 30.5749 3.45052 29.8262 4.10156 29.2402C4.78516 28.6217 5.58268 28.3125 6.49414 28.3125C8.44727 28.4753 9.50521 29.5332 9.66797 31.4863V48.7227C9.70052 49.5039 9.86328 50.1712 10.1562 50.7246C10.4492 51.2454 10.7747 51.6686 11.1328 51.9941C11.4909 52.2871 11.849 52.515 12.207 52.6777C12.5977 52.8079 12.9883 52.873 13.3789 52.873C13.7695 52.873 14.1602 52.8079 14.5508 52.6777C14.9414 52.515 15.3158 52.2871 15.6738 51.9941C16.0319 51.6686 16.3574 51.2454 16.6504 50.7246C16.9434 50.1712 17.0898 49.5039 17.0898 48.7227V31.4863C17.0898 30.5749 17.4154 29.8262 18.0664 29.2402C18.75 28.6217 19.5475 28.3125 20.459 28.3125C22.4121 28.4753 23.4863 29.5332 23.6816 31.4863V48.7227C23.7142 49.5039 23.877 50.1549 24.1699 50.6758C24.4629 51.2292 24.7884 51.6686 25.1465 51.9941C25.5046 52.2871 25.8626 52.515 26.2207 52.6777C26.6113 52.8079 27.002 52.873 27.3926 52.873C27.7832 52.873 28.1738 52.8079 28.5645 52.6777C28.9551 52.515 29.3294 52.2871 29.6875 51.9941C30.0456 51.6686 30.3711 51.2454 30.6641 50.7246C30.957 50.1712 31.1035 49.5039 31.1035 48.7227V31.4863C31.1035 30.5749 31.429 29.8262 32.0801 29.2402C32.7637 28.6217 33.5612 28.3125 34.4727 28.3125C36.4258 28.4753 37.5 29.5332 37.6953 31.4863V49.1133C37.6953 50.8711 37.3047 52.3848 36.5234 53.6543C35.7747 54.9238 34.8958 55.9492 33.8867 56.7305C32.9102 57.4792 31.8685 58.0488 30.7617 58.4395C29.6875 58.8301 28.5807 59.0254 27.4414 59.0254C26.3346 59.0254 25.2279 58.8301 24.1211 58.4395C23.0469 58.0488 22.0052 57.4629 20.9961 56.6816C20.8008 56.5514 20.6217 56.4049 20.459 56.2422C20.2637 56.4049 20.0846 56.5514 19.9219 56.6816C18.9128 57.4629 17.8548 58.0488 16.748 58.4395C15.6738 58.8301 14.5671 59.0254 13.4277 59.0254ZM54.1016 57.9023C51.237 57.8047 49.0723 57.1374 47.6074 55.9004C46.1426 54.6309 45.0846 53.2148 44.4336 51.6523C43.7826 50.0573 43.457 48.446 43.457 46.8184C43.457 45.1257 43.7663 43.498 44.3848 41.9355C45.0358 40.3405 46.0938 38.9245 47.5586 37.6875C49.056 36.418 50.944 35.7669 53.2227 35.7344H71.7773C72.6888 35.7344 73.4538 36.0436 74.0723 36.6621C74.7233 37.248 75.0488 37.9642 75.0488 38.8105C75.0488 39.6895 74.7233 40.4382 74.0723 41.0566C73.4538 41.6426 72.6888 41.9355 71.7773 41.9355H53.5156C52.7995 41.9355 52.1647 42.1797 51.6113 42.668C51.0905 43.1562 50.6999 43.791 50.4395 44.5723C50.2116 45.3535 50.0977 46.1185 50.0977 46.8672C50.0977 47.681 50.2116 48.4785 50.4395 49.2598C50.6999 50.041 51.0905 50.6758 51.6113 51.1641C52.1647 51.6198 52.7995 51.8639 53.5156 51.8965H71.7773C72.6888 51.8965 73.4538 52.1895 74.0723 52.7754C74.7233 53.3613 75.0488 54.0612 75.0488 54.875C75.0488 55.7214 74.7233 56.4375 74.0723 57.0234C73.4538 57.6094 72.6888 57.9023 71.7773 57.9023H54.1016ZM74.4629 46.7207C74.4629 47.3392 74.1862 47.8763 73.6328 48.332C73.1445 48.7552 72.526 48.9668 71.7773 48.9668H55.8105C55.0618 48.9668 54.4271 48.7552 53.9062 48.332C53.3854 47.8763 53.125 47.3392 53.125 46.7207C53.125 46.1348 53.3854 45.6139 53.9062 45.1582C54.4271 44.735 55.0618 44.5234 55.8105 44.5234H71.7773C72.526 44.5234 73.1608 44.7513 73.6816 45.207C74.2025 45.6302 74.4629 46.1348 74.4629 46.7207ZM87.2559 55.3145C87.0605 57.2676 85.9863 58.3255 84.0332 58.4883C83.1217 58.4883 82.3242 58.1953 81.6406 57.6094C80.9896 56.9909 80.6641 56.2259 80.6641 55.3145V32.2676C80.6966 31.3561 81.0384 30.6074 81.6895 30.0215C82.3405 29.403 83.1217 29.0938 84.0332 29.0938H104.541C107.406 29.1914 109.57 29.8262 111.035 30.998C112.5 32.1374 113.558 33.4395 114.209 34.9043C114.86 36.3691 115.186 37.8503 115.186 39.3477C115.186 40.9102 114.86 42.4238 114.209 43.8887C113.59 45.3535 112.533 46.6719 111.035 47.8438C109.57 48.9831 107.699 49.5365 105.42 49.5039H93.1152C92.2038 49.5039 91.4388 49.1784 90.8203 48.5273C90.1693 47.9089 89.8438 47.1439 89.8438 46.2324C89.8438 45.321 90.153 44.556 90.7715 43.9375C91.4225 43.2865 92.2038 42.9609 93.1152 42.9609H105.713C106.331 42.9609 106.836 42.7656 107.227 42.375C107.65 41.9518 107.959 41.4798 108.154 40.959C108.35 40.4056 108.447 39.8522 108.447 39.2988C108.447 38.778 108.35 38.2572 108.154 37.7363C107.959 37.1829 107.65 36.7109 107.227 36.3203C106.836 35.8971 106.331 35.6693 105.713 35.6367H88.5254C87.679 35.6693 87.2559 36.0924 87.2559 36.9062V55.3145ZM130.469 57.9023C127.604 57.8047 125.439 57.1374 123.975 55.9004C122.51 54.6309 121.452 53.2148 120.801 51.6523C120.15 50.0573 119.824 48.446 119.824 46.8184C119.824 45.1257 120.133 43.498 120.752 41.9355C121.403 40.3405 122.461 38.9245 123.926 37.6875C125.423 36.418 127.311 35.7669 129.59 35.7344H145.41C147.689 35.7669 149.561 36.418 151.025 37.6875C152.523 38.9245 153.581 40.3405 154.199 41.9355C154.85 43.498 155.176 45.1257 155.176 46.8184C155.176 48.446 154.85 50.0573 154.199 51.6523C153.548 53.2148 152.49 54.6309 151.025 55.9004C149.561 57.1374 147.396 57.8047 144.531 57.9023H130.469ZM129.395 42.2773C128.776 42.2773 128.239 42.5378 127.783 43.0586C127.327 43.5469 126.986 44.1328 126.758 44.8164C126.562 45.4674 126.465 46.1185 126.465 46.7695C126.465 47.4531 126.562 48.1367 126.758 48.8203C126.986 49.4714 127.327 50.0573 127.783 50.5781C128.239 51.0664 128.776 51.3268 129.395 51.3594H145.605C146.224 51.3268 146.761 51.0664 147.217 50.5781C147.673 50.0573 147.998 49.4714 148.193 48.8203C148.421 48.1367 148.535 47.4531 148.535 46.7695C148.535 46.1185 148.421 45.4674 148.193 44.8164C147.998 44.1328 147.673 43.5469 147.217 43.0586C146.761 42.5378 146.224 42.2773 145.605 42.2773H129.395ZM165.82 58.6836C164.518 58.6836 163.428 58.2279 162.549 57.3164C161.702 56.4049 161.279 55.2656 161.279 53.8984C161.279 52.5312 161.702 51.3919 162.549 50.4805C163.428 49.569 164.518 49.1133 165.82 49.1133C167.122 49.1133 168.213 49.569 169.092 50.4805C169.971 51.3919 170.41 52.5312 170.41 53.8984C170.41 55.2656 169.971 56.4049 169.092 57.3164C168.213 58.2279 167.122 58.6836 165.82 58.6836Z" fill="#3687FF"/>
</svg>
